<?xml version="1.0" encoding="iso-8859-1"?>
<!DOCTYPE svg PUBLIC "-//W3C//DTD SVG 1.1//EN" "http://www.w3.org/Graphics/SVG/1.1/DTD/svg11.dtd">
<svg xmlns="http://www.w3.org/2000/svg" xmlns:xlink="http://www.w3.org/1999/xlink" version="1.1" x="0px" y="0px" viewBox="0 0 100 125" enable-background="new 0 0 100 100" xml:space="preserve"><path d="M8.597,31.592h14.367v14.371c0,1.984,1.608,3.593,3.593,3.593c1.984,0,3.593-1.609,3.593-3.593V31.592h14.367  c0.002,0,0.003,0,0.005,0c1.984,0,3.593-1.609,3.593-3.593c0-1.984-1.608-3.593-3.593-3.593H30.15V10.035  c0-1.984-1.608-3.593-3.593-3.593c-1.985,0-3.593,1.609-3.593,3.593v14.372H8.593C6.608,24.407,5,26.016,5,28  c0,1.984,1.608,3.593,3.593,3.593C8.594,31.593,8.596,31.592,8.597,31.592z"/><path d="M91.407,71.187H55.479c-1.984,0-3.594,1.609-3.594,3.593c0,1.984,1.609,3.593,3.594,3.593h35.929v-0.001  c1.984,0,3.593-1.608,3.593-3.593C95,72.795,93.392,71.187,91.407,71.187z"/><path d="M91.195,15.196c1.402-1.403,1.402-3.679,0.001-5.081c-1.404-1.403-3.68-1.403-5.083,0L8.807,87.422  c-0.001,0.001-0.001,0.001-0.001,0.001c-1.403,1.403-1.403,3.679,0,5.082c1.403,1.404,3.678,1.403,5.081,0h0.001l77.307-77.307  C91.194,15.197,91.194,15.196,91.195,15.196z"/></svg>